<svg fill="none" viewBox="0 0 1042 555">
  <defs/>
  <g id="programmer" clip-path="url(#clip0)">
    <g id="Graphic">
      <path id="Background" fill="#DEC1BD" fill-rule="evenodd" d="M505.4 99.8c119.4-19.2 210.7 28.5 283.5 73.7 60.7 37.7 77.7 90.2 73 147.5-5.3 65.9-5.3 141.2-100.2 189.4-98 49.8-227.4 44.5-337.6 33.1-105.6-11-205.5-36.4-241.9-93.2-36.4-57 3.4-126 61.3-188.9 62-67.2 140.4-142 261.9-161.6z" clip-rule="evenodd"/>
      <g id="Monitors">
        <path id="Vector" fill="#1A2C2A" d="M424.3 485.5V510a6.1 6.1 0 01-6 6.2l-35 .7a6.1 6.1 0 01-6.3-6.1v-25.3h47.3z"/>
        <path id="Vector_2" fill="#000" d="M424.3 485.5V510a6.1 6.1 0 01-6 6.2l-35 .7a6.1 6.1 0 01-6.3-6.1v-25.3h47.3z" opacity=".1"/>
        <path id="Vector_3" fill="#1A2C2A" d="M426.3 485.5V510a6.1 6.1 0 01-6 6.2l-35 .7a6.1 6.1 0 01-6.3-6.1v-25.3h47.3z"/>
        <path id="Vector_4" fill="#000" d="M426.2 485.5v5l-47.1 1.3v-6.3h47.1z" opacity=".1"/>
        <path id="Vector_5" fill="#1A2C2A" d="M509.5 314.2v168.2a4 4 0 01-3.9 4l-191.6 5a4 4 0 01-4-3.9V314.2a4 4 0 014-4h191.6a4 4 0 013.9 4z"/>
        <g id="Screen 1">
          <path id="Vector_6" fill="#487873" d="M323 321h177v148l-177 4V321z"/>
          <path id="Rectangle4" fill="#C4C4C4" d="M323 321h177v15H323z"/>
          <circle id="Ellipse6" cx="330.5" cy="327.5" r="3.5" fill="#FF1D1D"/>
          <circle id="Ellipse8" cx="350.5" cy="327.5" r="3.5" fill="#3CFF1D"/>
          <circle id="Ellipse7" cx="340.5" cy="327.5" r="3.5" fill="#FFCD1D"/>
        </g>
        <path id="Vector_7" fill="#000" d="M314 310.3v181.2a4 4 0 01-4-4V314.2a4 4 0 014-4z" opacity=".1"/>
        <path id="Vector_8" fill="#1A2C2A" d="M712 314.2v168.2a4 4 0 01-3.9 4l-191.6 5a4 4 0 01-4-3.9V314.2a4 4 0 014-4H708a4 4 0 014 4z"/>
        <g id="Screen 2">
          <path id="Vector_9" fill="#487873" d="M525 321h178v148l-178 4V321z"/>
          <path id="Rectangle 4_2" fill="#C4C4C4" d="M525 321h178v15H525z"/>
        </g>
        <path id="Vector_10" fill="#000" d="M426.3 506.8v3.2a6.1 6.1 0 01-3.6 5.6l-40 .7a6.1 6.1 0 01-3.6-5.5v-3l47.1-1z" opacity=".1"/>
        <path id="Vector_11" fill="#1A2C2A" d="M426.7 517.4l-52.2 1v-8.6l52.2-1v8.6z"/>
        <path id="Vector_12" fill="#000" d="M426.7 517.4l-52.2 1v-8.6l52.2-1v8.6z" opacity=".1"/>
        <path id="Vector_13" fill="#1A2C2A" d="M428.7 517.4l-52.2 1v-8.6l52.2-1v8.6z"/>
      </g>
      <g id="Person">
        <path id="Vector_14" fill="#FBBEBE" d="M581.4 351.4a51.3 51.3 0 100-102.7 51.3 51.3 0 000 102.7z"/>
        <path id="Vector_15" fill="#FBBEBE" d="M632.8 379s-99.5 12-90 0c3.4-4.3 4.3-17.2 4.2-31.8l-.5-13.7c-1.1-22-3.8-43.5-3.8-43.5s87-41 77-8.5c-4 13.2-2.6 31.6.4 49 .9 5 2 10 3 14.6 2.6 11.5 5.9 22.8 9.6 34z"/>
        <path id="Vector_16" fill="#EC969A" d="M600.3 375c11.5-2.2 23.7-6 34.5-1.6 2.9 1.2 5.5 3 8.4 3.9 3 1 6.1 1.2 9.2 1.9a40.8 40.8 0 0124.9 20 121 121 0 0111.2 30.7l7 25.8c6 22.5 12 45.1 13.3 68.3-83.5 4.8-167.2 5.3-250.8 1.5 5.4-10.4 11-21.3 10.5-33-.4-11.7-7.2-23.2-4.8-34.8 1.6-7.3 6.6-13.4 9.7-20.2 8.7-19.5 2-45.8 17.3-60.6 7-6.7 17-9.2 26.6-9 12.3.5 24.9 4.3 37 6.2 15.6 2.3 30.3 3.7 46 .9z"/>
        <path id="Hair" fill="#4D322E" d="M551.5 319.5c0 7-5.7 9.9-8.5 16.3a163.5 163.5 0 00-12.6 74.7c.7 11-8 46.1-9.9 57-.7 13 7.5 23.5 7.5 23.5s23.2 22.7 34 20.5c10.7 5.7 57.3-6 70-13 12.7-7 10.1-.4 18.9-12 4.3-5.8 9-53.2 10.6-60.2 3.1-13-1.2-26.5-4.5-39.5a266.1 266.1 0 01-6.1-33c-.5-3.6-.8-7.3 0-10.7 1-4.1 3.7-7.5 5.7-11.3a49.5 49.5 0 002.9-34.8 147.6 147.6 0 00-14.1-32.8c-4.5-8.5-9.3-17.4-17.5-22.3a133 133 0 00-26.9-8.4h-5c-5.5-1.2-12.4 4.1-18 5-9.5 1.5-21.5 12-30 17.5-4.6 5.5-4.2 3.4-5 10.5-.7 6.6 5 25.6 6 32.5.6 4 6-7.6 11-2 3.2 3.4-8.6 17.7-8.5 22.5z"/>
      </g>
      <g id="Chair">
        <path id="Vector_17" fill="#000" d="M731.2 486.1l-.1 1.5-.2 2.4-1.3 18.5-1.6 22.3-.5 6.3-1 13.4v.2l-107 1-175.6 1.9v.8h-.1v-1.1l.4-14.4.9-28 .7-23.8.1-2.4a10.5 10.5 0 0111.4-10.2c4.7.4 10.9 1 18.2 1.4l3 .3a1619.4 1619.4 0 00204.5 1.7c12.2-.8 24.5-1.8 36.6-3a10.5 10.5 0 0111.6 11.2z" opacity=".1"/>
        <path id="Vector_18" fill="#1A2C2A" d="M443.9 554.4v-.8l175.6-2 107-1h.3v-.1l1-13.5.4-6 1.7-22.6 1.3-17.9v-.4a10.6 10.6 0 00-6.3-10.4c-1.7-.7-3.5-1-5.3-.8a937.4 937.4 0 01-41.5 3.3c-79 4.7-157.2.9-199.5-2l-3-.2-18.2-1.4a10.5 10.5 0 00-11.4 10.1l-.7 22.2-1 28-.4 14.4v1.1z"/>
        <path id="Vector_19" fill="#000" d="M731.5 493.1l-1.3 15.4-1.8 22.8-.4 5.7-1 12.9-.1.6v.2l-.1 1.4v-1.4h-.2l-107 1-175.7 1.9v-.3l.5-14.4 1-28 .7-18.7a6.4 6.4 0 016.8-6.1 995.6 995.6 0 0025.6 1.8c13 .8 29.3 1.7 48 2.4a1562.7 1562.7 0 00198-4 6.3 6.3 0 016.6 4.3c.3.8.4 1.7.4 2.5z" opacity=".1"/>
      </g>
    </g>
    <g id="Typing" fill="#fff">
      <path id="Line10" d="M353.7 439v1.2h1.8v.7h-1.8v3l.3.3.2.2h.4a2.9 2.9 0 00.5 0 6.4 6.4 0 00.5-.1v.5l-.2.1a3 3 0 01-.6.2 4 4 0 01-.4 0 2 2 0 01-.6-.1 1.3 1.3 0 01-.8-.8l-.1-.7v-2.6h-1.3v-.7h1.3v-1.1h.8zm5.2 4.3l.2.6 1.5-3.7h.9l-2.4 5.5-.2.4-.3.4-.5.3a1.3 1.3 0 01-.7.1h-.1-.1-.1v-.7h.2a16.1 16.1 0 00.3 0h.3l.2-.3.2-.3.1-.2.4-.6-2.1-4.6h1l1.2 3.1zm7.7-.6l-.1 1-.4.7a1.7 1.7 0 01-1.4.7 2 2 0 01-.7-.2c-.3 0-.5-.2-.6-.4v2.3h-.8v-6.6h.7v.6l.6-.5.8-.1.8.1.6.5.4.8v1zm-.8-.1l-.1-.7-.2-.5-.4-.4-.6-.2-.7.2-.4.5v2.3c0 .2.2.3.4.4.2.2.4.2.7.2l.6-.1.4-.4.2-.6v-.7zm4.3 2.5c-.4 0-.7 0-1-.2a2.1 2.1 0 01-1.1-1.2l-.2-1c0-.5 0-.8.2-1.1l.5-.8.7-.5.8-.1.9.1.6.5.4.8.1.9v.4h-3.4l.1.6.4.5a1.5 1.5 0 001 .4 1.7 1.7 0 001.4-.6l.5.4a2 2 0 01-.8.6l-.5.2h-.6zm-.1-4.3a1.2 1.2 0 00-.9.4l-.3.4-.2.6h2.6v-.5l-.3-.5a1.1 1.1 0 00-1-.4zm7.3.8h-4v-.7h4v.7zm0 1.8h-4v-.7h4v.7zm3-4.7l-.1 1.7h-.6v-2.2h.6v.5zm1.5 0v1.7h-.6v-2.2h.6v.5zm4.3.4v1.1h1.8v.7h-1.8v3l.3.3.3.2h.3a2.8 2.8 0 00.6 0 6 6 0 00.4-.1l.1.5-.2.1a3 3 0 01-.7.2 4 4 0 01-.4 0 2 2 0 01-.6-.1 1.3 1.3 0 01-.8-.8l-.1-.7v-2.6h-1.2v-.7h1.2v-1.1h.8zm5.6 6c-.3 0-.6 0-1-.2a2.1 2.1 0 01-1.1-1.2l-.2-1c0-.5 0-.8.2-1.1l.5-.8.7-.5.8-.1.9.1.6.5.4.8.1.9v.4h-3.4c0 .2 0 .4.2.6 0 .2.1.3.3.5a1.5 1.5 0 001 .4 1.7 1.7 0 001.4-.6l.5.4a1.9 1.9 0 01-.7.6l-.6.2h-.6zm-.1-4.3a1.2 1.2 0 00-.9.4l-.3.4-.1.6h2.5v-.5l-.3-.5a1.1 1.1 0 00-.9-.4zm5.4 1.2l1.2-1.8h1l-1.8 2.4 1.8 2.4h-.9l-1.3-1.8-1.3 1.8h-1l1.8-2.4-1.7-2.4h1l1.2 1.8zm5.3-3v1.2h1.8v.7h-1.8v2.6l.1.4.2.3.3.2h.3a2.9 2.9 0 00.6 0 6.3 6.3 0 00.4-.1l.1.5-.2.1a3 3 0 01-.7.2 4 4 0 01-.4 0 2 2 0 01-.6-.1 1.3 1.3 0 01-.8-.8V441h-1.3v-.7h1.2v-1.1h.8zm4.6 6.5h-.7l2.6-6.9h.8l-2.7 7zm6.3-1a1.3 1.3 0 00.8-.3l.3-.3.1-.4h.8c0 .2 0 .4-.2.6 0 .2-.2.4-.4.5a2.2 2.2 0 01-1.4.5c-.3 0-.6 0-.9-.2a2 2 0 01-1-1.3 3 3 0 01-.2-.9v-.2l.1-.9.4-.7.7-.5c.3-.2.6-.2 1-.2a2.1 2.1 0 011.3.5 1.6 1.6 0 01.6 1.2h-.8v-.4a1 1 0 00-.7-.6h-1.1l-.4.5-.2.5-.1.6v.8l.3.6.4.4.6.1zm6.6-.8v-.2l-.3-.2-.3-.2-.6-.2c-.3 0-.5 0-.7-.2l-.6-.2-.4-.4a1.1 1.1 0 010-1c.1-.3.2-.4.4-.5l.6-.3.7-.1h.8l.6.4.4.5.2.5h-.9v-.3l-.3-.2-.3-.2h-.9a1 1 0 00-.3.1l-.2.3v.5l.1.2.4.1.5.2.8.2c.3 0 .5.2.6.3.2 0 .3.2.4.4l.1.5-.1.6-.4.4a2 2 0 01-.7.3 2.9 2.9 0 01-1.6 0c-.2-.1-.5-.2-.6-.4l-.4-.5-.2-.6h.8a.9.9 0 00.5.7l.4.2h.4c.3 0 .6 0 .8-.2.2 0 .3-.3.3-.5zm5.4 0v-.2l-.3-.2-.3-.2-.6-.2c-.2 0-.5 0-.7-.2l-.6-.2-.4-.4a1.1 1.1 0 010-1c.1-.3.3-.4.4-.5l.6-.3.8-.1h.7l.6.4a1.4 1.4 0 01.6 1h-.9v-.3l-.3-.2-.3-.2h-.9a1 1 0 00-.3.1l-.2.3v.5l.1.2.4.1.5.2.8.2c.3 0 .5.2.6.3.2 0 .3.2.4.4l.1.5-.1.6-.4.4a2 2 0 01-.6.3 2.8 2.8 0 01-1.7 0l-.6-.4-.4-.5-.2-.6h.9a.8.8 0 00.4.7l.4.2h.4c.3 0 .6 0 .8-.2.2 0 .3-.3.3-.5zm3.7-5l-.1 1.7h-.6v-2.2h.7v.5zm1.6 0l-.1 1.7h-.6v-2.2h.7v.5zm8.6 2.3c.1-.3.3-.5.6-.6.2-.2.5-.2.8-.2h.7l.5.4.4.6v3.8h-.7v-3c0-.4-.1-.7-.3-.9-.2-.2-.5-.3-.8-.3l-.7.2-.5.5v3.5h-.9v-6.8h.9v2.8zm7.7-.8a3.3 3.3 0 01.8 0l-.1.9a4 4 0 00-.9-.1c-.4 0-.7 0-1 .2l-.4.8v3h-.9v-4.8h.8v.8l.7-.6c.3-.2.6-.2 1-.2zm4.4 4.9c-.4 0-.7 0-1-.2a2.1 2.1 0 01-1.1-1.2c-.2-.3-.2-.6-.2-1 0-.5 0-.8.2-1.1l.5-.8.7-.5.8-.1.9.1.6.5.4.8.1.9v.4h-3.4l.1.6.3.5a1.5 1.5 0 001.1.4 1.7 1.7 0 001.3-.6l.5.4a1.9 1.9 0 01-.7.6l-.5.2h-.6zm-.1-4.3a1.2 1.2 0 00-1 .4l-.2.4-.2.6h2.6l-.1-.5-.2-.5a1.1 1.1 0 00-1-.4zm4.6 4.2v-4.1h-1.3v-.7h1.3v-.3l.1-.8.4-.6.6-.3.7-.1h.6l.6.1-.1.7a3 3 0 00-1-.1c-.3 0-.6 0-.8.2-.2.2-.3.5-.3 1v.2h1.8v.7h-1.8v4.1h-.8zm8-3.4H460v-.7h3.9v.7zm0 1.8H460v-.7h3.9v.7zm3-4.7v1.7h-.6v-2.2h.6v.5zm1.6 0v1.7h-.7v-2.2h.7v.5z"/>
      <path id="Line9" d="M352.8 433l-.2.2h.2l2.7 1v1l-3.8-1.7v-.7l3.8-1.6v.8l-2.7 1zm4.5-3.8h2.4v6.1h1.6v.7h-4v-.7h1.6V430h-1.6v-.8zm5.4 2h2.4v4.1h1.6v.7h-4v-.7h1.6V432h-1.6v-.8zm1.5-1.2l.1-.3.4-.2c.2 0 .3 0 .4.2v.6l-.4.2c-.2 0-.3 0-.4-.2v-.3zm4.5 1.2v.7l.7-.5c.3-.2.5-.2.8-.2h.7a1.3 1.3 0 01.9 1l.1.8v3h-.8v-3-.5l-.3-.4-.3-.2h-.5c-.3 0-.5 0-.7.2-.2 0-.4.3-.5.5v3.4h-.8v-4.8h.7zm6.1 2.6l-.6.6v1.6h-.8v-6.8h.8v4.2l.5-.6 1.6-1.6h1l-2 2 2.3 2.8h-1l-1.8-2.2zm12.5-2.6a3.3 3.3 0 01.8 0v.9a4 4 0 00-1-.1c-.3 0-.6 0-.9.2-.2.2-.4.4-.5.8v3h-.8v-4.8h.8v.8c.2-.3.4-.5.7-.6.3-.2.6-.2 1-.2zm4.4 4.9c-.3 0-.6 0-1-.2a2.1 2.1 0 01-1.1-1.2l-.2-1c0-.5 0-.8.2-1.1l.5-.8.7-.5.8-.1.9.1.6.5.4.8.1.9v.4h-3.4c0 .2 0 .4.2.6 0 .2.1.3.3.5a1.5 1.5 0 001 .4 1.7 1.7 0 001.4-.6l.5.4a1.9 1.9 0 01-.7.6l-.6.2h-.6zm-.1-4.3a1.2 1.2 0 00-.9.4l-.3.4-.1.6h2.5v-.5l-.3-.5a1.1 1.1 0 00-.9-.4zm3.5-2.6h2.5v6.1h1.5v.7h-4v-.7h1.7V430H395v-.8zm9.2 3.4h-3.9v-.7h4v.7zm0 1.8h-3.9v-.7h4v.7zm3-4.7l-.1 1.7h-.6v-2.2h.7v.5zm1.5 0v1.7h-.6v-2.2h.6v.5zm5.6 5v-.2l-.3-.2-.3-.2-.6-.2c-.3 0-.5 0-.7-.2l-.6-.2-.4-.4a1.1 1.1 0 010-1c.1-.3.2-.4.4-.5l.6-.3.7-.1h.8l.6.4.4.5.1.5h-.8v-.3l-.3-.2-.3-.2h-.9a1 1 0 00-.3.1l-.2.3-.1.2v.3l.2.2.4.1.5.2.8.2c.3 0 .4.2.6.3.2 0 .3.2.4.4v1.1l-.4.4a2 2 0 01-.7.3 2.9 2.9 0 01-1.6 0c-.2-.1-.5-.2-.6-.4l-.4-.5-.2-.6h.8a.9.9 0 00.5.7l.3.2h.5c.3 0 .6 0 .8-.2.2 0 .3-.3.3-.5zm4.2-4.6v1.1h1.8v.7h-1.8v3l.2.3.3.2h.3a2.9 2.9 0 00.6 0 6 6 0 00.4-.1l.1.5-.2.1a3 3 0 01-.7.2 4 4 0 01-.4 0 2 2 0 01-.6-.1l-.4-.3c-.2-.1-.3-.3-.3-.5l-.2-.7v-2.6h-1.2v-.7h1.2v-1.1h.9zm5.2 4.2l.2.6 1.4-3.7h1l-2.5 5.5a3 3 0 01-.5.8l-.4.3a1.3 1.3 0 01-.7.1h-.4l.1-.7h.1a16.6 16.6 0 00.3 0h.3l.3-.3.2-.3v-.2l.4-.6-2-4.6h.9l1.3 3.1zm3.8-5h2.4v6h1.5v.7h-4v-.7h1.7V430h-1.6v-.8zm7.3 6.8c-.3 0-.6 0-.9-.2a2.1 2.1 0 01-1.2-1.2l-.1-1c0-.5 0-.8.2-1.1 0-.3.2-.6.4-.8l.7-.5.8-.1 1 .1.6.5.4.8v1.3h-3.3l.1.6c0 .2.2.3.3.5a1.5 1.5 0 001 .4 1.7 1.7 0 001.4-.6l.5.4a1.9 1.9 0 01-.7.6l-.5.2h-.7zm0-4.3a1.2 1.2 0 00-1 .4l-.2.4-.2.6h2.6l-.1-.5-.2-.5a1.1 1.1 0 00-1-.4zm6.5 3v-.3l-.2-.2-.4-.2-.6-.2c-.2 0-.5 0-.7-.2l-.6-.2-.4-.4a1.1 1.1 0 010-1c.1-.3.3-.4.4-.5l.6-.3.8-.1h.8l.6.4.3.5.2.5h-.8l-.1-.3-.2-.2-.4-.2h-.9a1 1 0 00-.3.1l-.2.3v.5l.2.2.3.1.6.2.7.2c.3 0 .5.2.6.3.2 0 .3.2.4.4l.1.5-.1.6-.4.4a2 2 0 01-.6.3 2.9 2.9 0 01-1.7 0l-.6-.4-.4-.5-.1-.6h.8a.9.9 0 00.4.7l.4.2h.4c.3 0 .6 0 .8-.2.2 0 .3-.3.3-.5zm3-2.8c.2-.3.4-.5.7-.6.2-.2.5-.2.8-.2h.7l.5.4.4.6v3.8h-.7v-3c0-.4-.1-.7-.3-.9-.2-.2-.5-.3-.8-.3l-.7.2-.5.5v3.5h-.8v-6.8h.8v2.8zm6.8 4h-1a2.1 2.1 0 01-1.1-1.3c-.2-.3-.2-.6-.2-1 0-.5 0-.8.2-1.1l.5-.8.7-.5.8-.1.9.1.6.5.4.8.1.9v.4h-3.4l.1.6.3.5a1.5 1.5 0 001.1.4 1.7 1.7 0 001.3-.6l.5.4a1.9 1.9 0 01-.7.6l-.5.2h-.6zm-.1-4.2a1.2 1.2 0 00-1 .4l-.2.4-.2.6h2.6l-.1-.5-.2-.5a1.1 1.1 0 00-1-.4zm5.5 4.3c-.4 0-.7 0-1-.2a2.1 2.1 0 01-1.1-1.2c-.2-.3-.2-.6-.2-1 0-.5 0-.8.2-1.1l.5-.8.7-.5.8-.1.9.1.6.5.4.8.1.9v.4h-3.4l.1.6.3.5a1.5 1.5 0 001.1.4 1.7 1.7 0 001.3-.6l.5.4a1.9 1.9 0 01-.7.6l-.5.2h-.6zm-.1-4.3a1.2 1.2 0 00-.9.4l-.3.4-.2.6h2.6l-.1-.5-.2-.5a1.1 1.1 0 00-1-.4zm5.3-1.7v1.1h1.8v.7h-1.8v3l.3.3.2.2h.4a2.8 2.8 0 00.5 0 6.3 6.3 0 00.5-.1v.5l-.2.1a3 3 0 01-.6.2 4 4 0 01-.4 0 2 2 0 01-.6-.1 1.3 1.3 0 01-.8-.8l-.1-.7v-2.6h-1.3v-.7h1.3v-1.1h.8zm5-.4l-.2 1.7h-.5v-2.2h.6v.5zm1.5 0v1.7h-.7v-2.2h.7v.5z"/>
      <path id="Line8" d="M354.4 427h-.8v-5.4l-1.7.7v-.8l2.4-.9h.1v6.4zm4.2-.5v-.3a.6.6 0 01.3-.3h.6l.2.1.1.2v.5l-.1.2-.2.1h-.3-.3-.2a.6.6 0 01-.1-.5zm8-2l-.1 1.1c-.1.4-.3.6-.5.8-.1.2-.3.4-.6.5l-.9.2c-.3 0-.6 0-.8-.2-.3 0-.5-.3-.7-.5l-.4-.8-.2-1V423l.2-1.1c0-.3.2-.6.4-.8l.6-.5 1-.2c.2 0 .5 0 .8.2.3 0 .5.3.6.5l.5.8v2.6zm-3.3-.1l2.5-2c0-.3-.2-.7-.4-.9-.2-.2-.5-.3-.9-.3s-.7.1-1 .4l-.2 1.3v1.5zm2.5-1.1l-2.5 1.9c0 .4.2.7.4.9.2.2.5.3.8.3.5 0 .8-.1 1-.4.2-.3.3-.7.3-1.3v-1.4zm3.6-2.6v1.7h-.6v-2.2h.6v.5zm1.6 0v1.7h-.7v-2.2h.7v.5zm2.4 2.3v-.8l3.9 1.6v.7l-3.9 1.6v-.8l2.8-1 .3-.2h-.3l-2.8-1.1z"/>
      <path id="Line7" d="M352.5 416.3v.7l.2-.7.8-3h.5l.7 3 .2.7v-.7l.6-3h.7l-1 4.7h-.6l-.8-3v-.7l-.2.8-.7 2.9h-.7l-1-4.8h.7l.6 3zm4.8-3h2.4v4h1.6v.7h-4v-.7h1.6V414h-1.6v-.8zm1.5-1.3l.1-.3.4-.2c.2 0 .3 0 .4.2v.6l-.4.2c-.2 0-.3 0-.4-.2v-.3zm3.6 3.6c0-.4 0-.7.2-1 0-.3.2-.5.3-.8l.6-.5.8-.1.8.1.5.4v-2.4h.8v6.7h-.7v-.5l-.6.4-.8.2a1.7 1.7 0 01-1.4-.7c-.1-.2-.3-.5-.3-.8l-.2-1zm.8 0l.1.7.2.6.4.4.6.1h.4a1.1 1.1 0 00.5-.4l.2-.3v-2.2c0-.2-.2-.3-.4-.5l-.7-.2c-.2 0-.4 0-.6.2l-.4.4-.2.5v.7zm6.7-3.5v1.1h1.8v.7H370v3l.3.3.3.2h.3a2.8 2.8 0 00.5 0 6 6 0 00.5-.1l.1.5-.3.1a3 3 0 01-.6.2 4 4 0 01-.4 0 2 2 0 01-.6-.1 1.3 1.3 0 01-.8-.8l-.1-.7v-2.6h-1.3v-.7h1.3v-1.1h.8zm4.3 1.9l.6-.6c.3-.2.6-.2.9-.2h.6l.6.4.3.6.1.8v3h-.8v-3c0-.4 0-.7-.3-.9-.2-.2-.4-.3-.8-.3l-.7.2-.5.5v3.5h-.8v-6.8h.8v2.8zm6.7 3.8l-.1.4c0 .2 0 .3-.2.5 0 .1 0 .3-.2.4 0 .2-.2.3-.3.4l-.5-.3.3-.7V417h1v.8zm8.8-4.6h2.5v4.1h1.5v.7h-4v-.7h1.6V414h-1.6v-.8zm1.5-1.2c0-.1 0-.3.2-.3l.3-.2c.2 0 .3 0 .4.2l.1.3-.1.3-.4.2c-.1 0-.3 0-.3-.2l-.2-.3zm4.5 1.2v.7l.7-.5c.3-.2.6-.2.9-.2h.7l.5.4.3.6.1.8v3h-.8v-3-.5l-.3-.4-.3-.2h-.5c-.2 0-.5 0-.7.2-.2 0-.4.3-.5.5v3.4h-.8v-4.8h.7zm4.8 0h2.5v4.1h1.5v.7h-4v-.7h1.7V414h-1.7v-.8zm1.6-1.2v-.3l.4-.2c.2 0 .3 0 .4.2l.1.3-.1.3-.4.2c-.1 0-.2 0-.3-.2l-.1-.3zm5.6 0v1.2h1.9v.7h-1.9v2.6l.1.4.2.3.3.2h.3a2.8 2.8 0 00.6 0 6 6 0 00.4-.1l.1.5-.2.1a3 3 0 01-.7.2 4 4 0 01-.4 0 2 2 0 01-.6-.1 1.3 1.3 0 01-.8-.8V414h-1.3v-.7h1.2v-1.1h.8zm3.7 1.2h2.4v4.1h1.5v.7h-4v-.7h1.7V414h-1.6v-.8zm1.5-1.2v-.3l.5-.2c.1 0 .2 0 .3.2l.1.3v.3l-.4.2c-.2 0-.3 0-.4-.2l-.1-.3zm6.9 6l-.1-.2v-.3a2.2 2.2 0 01-1 .5 2 2 0 01-1.1 0l-.6-.3c-.1-.1-.3-.3-.3-.5l-.2-.5.2-.7.4-.5.7-.3h1.8v-.5-.3l-.3-.3a1 1 0 00-.3-.2 1.5 1.5 0 00-1 0 1 1 0 00-.3.1l-.2.3v.3h-.9c0-.2 0-.4.2-.5 0-.2.2-.4.4-.5l.5-.3.8-.1h.8l.6.4c.2 0 .3.3.4.5l.1.7v2.2a3 3 0 00.2 1h-.8zm-1.5-.6a1.5 1.5 0 001.1-.5l.2-.2v-1h-.7c-.5 0-.9 0-1.1.2-.3.1-.4.4-.4.7v.3a.7.7 0 00.5.4h.4zm3.9-6.1h2.4v6h1.5v.7h-4v-.7h1.7V412h-1.6v-.8zm8.8 4.2h-3.4v-.6h3.4v.6zm5 1.2v-.2l-.2-.2-.4-.2-.6-.2c-.2 0-.5 0-.7-.2l-.6-.2-.4-.4a1.1 1.1 0 010-1c.1-.3.3-.4.4-.5l.6-.3.8-.1h.8l.6.4.3.5.2.5h-.8l-.1-.3-.2-.2-.4-.2h-.9a1 1 0 00-.3.1l-.2.3v.5l.2.2.3.1.6.2.7.2c.3 0 .5.2.6.3.2 0 .3.2.4.4l.1.5-.1.6-.4.4a2 2 0 01-.6.3 2.9 2.9 0 01-1.7 0l-.6-.4-.4-.5-.2-.6h.9a.9.9 0 00.4.7l.4.2h.4c.3 0 .6 0 .8-.2.2 0 .3-.3.3-.5zm4.3.7a1.3 1.3 0 00.8-.2l.2-.3.1-.4h.8c0 .2 0 .4-.2.6 0 .2-.2.4-.4.5a2.2 2.2 0 01-2.3.3 2 2 0 01-1-1.3 3 3 0 01-.2-.9v-.2l.1-.9.5-.7.6-.5c.3-.2.6-.2 1-.2a2.1 2.1 0 011.4.5 1.6 1.6 0 01.5 1.2h-.8v-.4a1 1 0 00-.7-.6h-1.1l-.4.5-.2.5v1.4l.2.6.4.4.7.1zm6.5.6l-.1-.2v-.3a2.1 2.1 0 01-1 .5 2 2 0 01-1.1 0l-.6-.3-.3-.5-.1-.5.1-.7.5-.5.7-.3H446.6v-.5-.3c0-.2-.2-.3-.3-.3a1 1 0 00-.3-.2 1.5 1.5 0 00-1 0 1 1 0 00-.2.1l-.2.3-.1.3h-.8l.1-.5c0-.2.2-.4.4-.5l.6-.3.8-.1h.7l.6.4c.2 0 .3.3.4.5l.2.7v2.2a3.2 3.2 0 00.1 1h-.8zm-1.5-.6a1.6 1.6 0 001.2-.5l.1-.2v-1h-.7c-.5 0-.9 0-1.1.2-.3.1-.4.4-.4.7v.3a.7.7 0 00.5.4h.4zm3.9-6.1h2.4v6h1.6v.7h-4v-.7h1.6V412h-1.6v-.8zm7.4 6.8c-.4 0-.7 0-1-.2a2.1 2.1 0 01-1.1-1.2c-.2-.3-.2-.6-.2-1 0-.5 0-.8.2-1.1l.5-.8.7-.5.8-.1.9.1.6.5.4.8.1.9v.4h-3.4l.1.6.3.5a1.5 1.5 0 001.1.4 1.7 1.7 0 001.3-.6l.5.4a1.9 1.9 0 01-.7.6l-.5.2h-.6zm-.1-4.3a1.2 1.2 0 00-.9.4l-.3.4-.2.6h2.6l-.1-.5-.2-.5a1.1 1.1 0 00-1-.4zm7.3.8h-4v-.7h4v.7zm0 1.8h-4v-.7h4v.7z"/>
      <path id="Line6" d="M353.8 409.4a1.3 1.3 0 00.8-.2l.3-.3v-.4h.8l-.1.6-.5.5a2.2 2.2 0 01-1.3.5c-.4 0-.7 0-1-.2a2 2 0 01-1-1.3 3 3 0 01-.2-.9v-.2c0-.3 0-.6.2-.9 0-.3.2-.5.4-.7l.6-.5c.3-.2.6-.2 1-.2a2.1 2.1 0 011.4.5 1.6 1.6 0 01.5 1.2h-.7l-.1-.4a1 1 0 00-.7-.6h-1l-.5.5-.2.5v1.4l.2.6.4.4.7.1zm3.1-1.8c0-.4 0-.7.2-1 0-.3.2-.5.4-.7a2 2 0 011.6-.7 2 2 0 011.6.7l.4.7.2 1c0 .4 0 .7-.2 1 0 .3-.2.6-.4.8a2 2 0 01-1.6.7c-.3 0-.6 0-.9-.2a2 2 0 01-1.1-1.3 3 3 0 01-.2-1zm.9 0v.7c0 .3.2.4.3.6l.4.4.6.1a1.2 1.2 0 001-.5l.3-.6v-.7-.7c0-.2-.2-.4-.3-.5a1.2 1.2 0 00-2 0l-.3.5v.7zm5.5-2.4v.7l.7-.5c.3-.2.5-.2.8-.2h.7l.5.4c.2.1.3.3.4.6v3.8h-.7v-3-.5l-.3-.4-.3-.2h-.5c-.3 0-.5 0-.7.2-.2 0-.4.3-.5.5v3.4h-.8v-4.8h.7zm6.6-1.1v1.1h1.8v.7H370v3l.3.3.3.2h.3a2.8 2.8 0 00.5 0 6 6 0 00.5-.1l.1.5-.3.1a3 3 0 01-.6.2 4 4 0 01-.4 0 2 2 0 01-.6-.1 1.3 1.3 0 01-.8-.8l-.1-.7v-2.6h-1.3v-.7h1.3v-1.1h.8zm5.6 6c-.3 0-.7 0-1-.2a2.1 2.1 0 01-1.1-1.2l-.2-1c0-.5 0-.8.2-1.1l.5-.8.7-.5.8-.1.9.1.6.5.4.8.1.9v.4H374l.1.6.4.5a1.5 1.5 0 001 .4 1.7 1.7 0 001.4-.6l.5.4a1.9 1.9 0 01-.7.6l-.6.2h-.6zm-.1-4.3a1.2 1.2 0 00-.9.4l-.3.4-.1.6h2.5v-.5l-.3-.5a1.1 1.1 0 00-1-.4zm4.1-.6v.7l.7-.5c.3-.2.5-.2.9-.2h.6l.6.4.3.6.1.8v3h-.8v-3-.5l-.3-.4-.3-.2h-.5c-.3 0-.5 0-.7.2-.2 0-.4.3-.5.5v3.4h-.8v-4.8h.7zm6.6-1.1v1.1h1.8v.7h-1.8v3l.3.3.3.2h.3a2.8 2.8 0 00.6 0 6 6 0 00.4-.1l.1.5-.2.1a3 3 0 01-.7.2 4 4 0 01-.4 0 2 2 0 01-.6-.1 1.3 1.3 0 01-.8-.8l-.1-.7v-2.6h-1.2v-.7h1.2v-1.1h.8zm7.4 2.5h-3.9v-.7h4v.7zm0 1.8h-3.9v-.7h4v.7zm3-4.7l-.1 1.7h-.6v-2.2h.7v.5zm1.5 0v1.7h-.6v-2.2h.6v.5zm3.1 4.6l.1.7.1-.7.8-3h.5l.8 3 .1.7.1-.7.6-3h.7l-1 4.7h-.7l-.7-3-.1-.7-.2.8-.7 2.9h-.6l-1-4.8h.7l.5 3zm4.8-3h2.5v4h1.5v.7h-4v-.7h1.7V406h-1.7v-.8zm1.6-1.3v-.3l.4-.2c.2 0 .3 0 .4.2l.1.3v.3l-.5.2c-.1 0-.2 0-.3-.2l-.1-.3zm3.6 3.6l.1-1c0-.3.2-.5.4-.8l.6-.5.8-.1.7.1.6.4v-2.4h.8v6.7h-.8v-.5l-.6.4-.7.2a1.7 1.7 0 01-1.4-.7l-.4-.8-.1-1zm.8 0v.7l.3.6.4.4.6.1h.3l.3-.2.3-.2.2-.3v-2.2l-.5-.5-.6-.2c-.3 0-.5 0-.6.2-.2 0-.3.2-.4.4l-.2.5-.1.7zm6.7-3.5v1.1h1.8v.7h-1.8v3l.2.3.3.2h.3a2.9 2.9 0 00.6 0 6 6 0 00.4-.1l.1.5-.2.1a3 3 0 01-.7.2 4 4 0 01-.4 0 2 2 0 01-.6-.1l-.4-.3c-.2-.1-.3-.3-.3-.5l-.2-.7v-2.6h-1.2v-.7h1.2v-1.1h.9zm4.2 1.9c.2-.3.4-.5.7-.6.2-.2.5-.2.8-.2h.7l.5.4c.2.2.3.3.3.6l.2.8v3h-.9v-3c0-.4 0-.7-.2-.9-.2-.2-.5-.3-.8-.3l-.7.2-.6.5v3.5h-.8v-6.8h.8v2.8zm8.2 1.5h-3.4v-.6h3.4v.6zm1.7 0l.1-.9.4-.8.6-.5.8-.1.7.1.6.4v-2.4h.8v6.7h-.7v-.5l-.6.4-.8.2a1.7 1.7 0 01-1.4-.7l-.4-.8-.1-1zm.8.2v.6l.3.6.4.4.6.1h.4a1.2 1.2 0 00.5-.4l.2-.3v-2.2l-.4-.5-.7-.2c-.2 0-.4 0-.6.2-.2 0-.3.2-.4.4l-.2.5-.1.7zm6.9 2.4c-.4 0-.7 0-1-.2a2.1 2.1 0 01-1.2-1.2l-.1-1c0-.5 0-.8.2-1.1 0-.3.2-.6.4-.8l.7-.5.8-.1 1 .1.6.5.4.8v1.3H439l.1.6c0 .2.2.3.3.5a1.5 1.5 0 001 .4 1.7 1.7 0 001.4-.6l.5.4a1.9 1.9 0 01-.7.6l-.5.2h-.6zm-.2-4.3a1.2 1.2 0 00-.8.4l-.3.4-.2.6h2.6l-.1-.5-.2-.5a1.1 1.1 0 00-1-.4zm5.3 3v.3l.2-.3 1.3-3.6h.8L446 410h-.6l-2-4.8h.9l1.3 3.6zm3.7-3.6h2.4v4.1h1.6v.7h-4v-.7h1.6V406h-1.6v-.8zm1.5-1.2l.1-.3.4-.2c.1 0 .3 0 .4.2v.6l-.4.2c-.2 0-.3 0-.4-.2l-.1-.3zm5.8 5.4a1.3 1.3 0 00.8-.2l.3-.3v-.4h.8l-.1.6-.5.5a2.2 2.2 0 01-1.3.5c-.4 0-.7 0-1-.2a2 2 0 01-1-1.3 3 3 0 01-.2-.9v-.2c0-.3 0-.6.2-.9 0-.3.2-.5.4-.7l.6-.5c.3-.2.6-.2 1-.2a2.1 2.1 0 011.4.5 1.6 1.6 0 01.5 1.2h-.7l-.1-.4a1 1 0 00-.7-.6h-1l-.5.5-.2.5v1.4l.2.6.4.4.7.1zm5.5.7c-.4 0-.7 0-1-.2a2.1 2.1 0 01-1.1-1.2l-.2-1c0-.5 0-.8.2-1.1l.5-.8.7-.5.8-.1.9.1.6.5.4.8.1.9v.4h-3.4l.1.6.3.5a1.5 1.5 0 001.1.4 1.7 1.7 0 001.4-.6l.4.4a1.9 1.9 0 01-.7.6l-.5.2h-.6zm-.1-4.3a1.2 1.2 0 00-.9.4l-.3.4-.2.6h2.6l-.1-.5-.2-.5a1.1 1.1 0 00-1-.4zm7 1.7h-3.4v-.6h3.3v.6z"/>
      <path id="Line5" d="M352.8 398l-.2.2h.2l2.7 1v1l-3.8-1.7v-.7l3.8-1.6v.8l-2.7 1zm4.7-1.8v.5l.4-.4.6-.1c.5 0 .7.1.9.5 0-.2.2-.3.4-.4l.5-.1c.4 0 .6 0 .8.3.2.2.3.5.3 1v3.5h-.8v-3.6c0-.4-.2-.6-.5-.6h-.3a.5.5 0 00-.3.4V401h-.8v-3.6l-.1-.4-.4-.2-.4.1-.2.3v3.8h-.8v-4.8h.7zm7.2 4.9c-.4 0-.7 0-1-.2a2.1 2.1 0 01-1.1-1.2l-.2-1c0-.5 0-.8.2-1.1l.5-.8.7-.5.8-.1.9.1.6.5.4.8.1.9v.4h-3.4l.1.6.3.5a1.5 1.5 0 001.1.4 1.7 1.7 0 001.4-.6l.5.4a1.9 1.9 0 01-.8.6l-.5.2h-.6zm-.1-4.3a1.2 1.2 0 00-.9.4l-.3.4-.2.6h2.6v-.5l-.3-.5a1.1 1.1 0 00-1-.4zm5.3-1.7v1.1h1.8v.7H370v3l.3.3.3.2h.3a2.8 2.8 0 00.5 0 6 6 0 00.5-.1l.1.5-.3.1a3 3 0 01-.6.2 4 4 0 01-.4 0 2 2 0 01-.6-.1 1.3 1.3 0 01-.8-.8l-.1-.7v-2.6h-1.3v-.7h1.3v-1.1h.8zm6.6 5.9v-.2l-.1-.3a2.2 2.2 0 01-1 .5 2 2 0 01-1.1 0l-.6-.3-.3-.5v-.5-.7l.5-.5.7-.3h1.8v-.5l-.1-.3c0-.2-.1-.3-.2-.3a1 1 0 00-.4-.2 1.5 1.5 0 00-.9 0 1 1 0 00-.3.1l-.2.3v.3h-.9l.1-.5.4-.5.6-.3.8-.1h.7c.3.1.5.2.6.4.2 0 .3.3.4.5l.2.7v2.2a3.2 3.2 0 00.2 1h-.9zm-1.4-.6a1.6 1.6 0 001-.5c.2 0 .2-.2.3-.2v-1h-.8c-.5 0-.8 0-1 .2-.3.1-.5.4-.5.7v.3a.7.7 0 00.6.4h.4zm9.8-4.2v.7l.7-.5c.3-.2.6-.2.9-.2h.6a1.3 1.3 0 01.9 1l.1.8v3h-.8v-3-.5l-.3-.4-.3-.2h-.5c-.3 0-.5 0-.7.2-.2 0-.4.3-.5.5v3.4h-.8v-4.8h.7zm7.8 4.8v-.2-.3a2.2 2.2 0 01-1 .5 2 2 0 01-1.1 0l-.6-.3-.4-.5v-.5-.7l.5-.5.7-.3h1.8v-.5-.3l-.3-.3a1 1 0 00-.4-.2 1.5 1.5 0 00-.9 0 1 1 0 00-.3.1l-.2.3v.3h-.9c0-.2 0-.4.2-.5 0-.2.2-.4.3-.5l.6-.3.8-.1h.8l.6.4.4.5.1.7v2.2a3.2 3.2 0 00.2 1h-.9zm-1.4-.6a1.6 1.6 0 001.1-.5l.2-.2v-1h-.8c-.4 0-.8 0-1 .2-.3.1-.5.4-.5.7v.3a.7.7 0 00.6.4h.4zm4-4.2l.1.5.4-.4.6-.1c.4 0 .7.1.8.5l.4-.4.6-.1c.3 0 .6 0 .8.3l.2 1v3.5h-.7v-3.6c0-.4-.2-.6-.6-.6h-.2a.5.5 0 00-.3.4V401h-.8v-3.6c0-.2 0-.3-.2-.4l-.4-.2-.4.1-.2.3v3.8h-.7v-4.8h.7zm7.2 4.9c-.3 0-.6 0-1-.2a2.1 2.1 0 01-1-1.2c-.2-.3-.3-.6-.3-1l.2-1.1.5-.8.7-.5.8-.1.9.1.6.5.4.8.2.9v.4H401v.6l.4.5a1.5 1.5 0 001 .4 1.7 1.7 0 001.4-.6l.5.4a1.9 1.9 0 01-.7.6l-.5.2h-.7zm0-4.3a1.2 1.2 0 00-1 .4l-.3.4-.1.6h2.5v-.5l-.3-.5a1.1 1.1 0 00-.9-.4zm7.2.8h-3.9v-.7h4v.7zm0 1.8h-3.9v-.7h4v.7zm3-4.7l-.1 1.7h-.6v-2.2h.7v.5zm1.5 0v1.7h-.6v-2.2h.6v.5zm4.3 5.1v.3l.1-.3 1.4-3.6h.8l-2 4.8h-.6l-2-4.8h1l1.3 3.6zm3.7-3.6h2.4v4.1h1.5v.7h-4v-.7h1.7V397h-1.6v-.8zm1.5-1.2v-.3l.5-.2c.1 0 .2 0 .3.2l.1.3v.3l-.4.2c-.2 0-.3 0-.4-.2l-.1-.3zm5.8 6h-.9a2.1 2.1 0 01-1.2-1.3l-.1-1c0-.5 0-.8.2-1.1 0-.3.2-.6.4-.8l.7-.5.8-.1 1 .1.6.5.4.8v1.3h-3.3l.1.6c0 .2.2.3.3.5a1.5 1.5 0 001 .4 1.7 1.7 0 001.4-.6l.5.4a2 2 0 01-.7.6l-.5.2h-.7zm0-4.2a1.2 1.2 0 00-1 .4l-.2.4-.2.6h2.6l-.1-.5c0-.2-.2-.3-.3-.5a1.1 1.1 0 00-.9-.4zm4 2.5l.2.7v-.7l.8-3h.6l.7 3 .1.7.2-.7.5-3h.7l-1 4.7h-.6l-.8-3-.1-.7-.1.8-.8 2.9h-.6l-1-4.8h.7l.6 3zm8.8-.6c0 .3 0 .6-.2 1l-.3.7-.6.5-.8.2a2 2 0 01-.8-.2c-.2 0-.4-.2-.5-.4v2.3h-.9v-6.6h.8v.6l.6-.5.8-.1.8.1.6.5c.1.3.3.5.3.8l.2 1zm-.9-.1v-.7c0-.2-.2-.4-.3-.5 0-.2-.2-.3-.4-.4l-.6-.2-.6.2-.4.5v2.3c0 .2.2.3.4.4.2.2.4.2.6.2l.6-.1.4-.4.3-.6v-.7zm2 0c0-.4 0-.7.2-1 0-.3.2-.5.4-.7l.7-.6.9-.1a2.1 2.1 0 011.6.7l.4.7.1 1-.1 1-.4.8a2 2 0 01-.7.5l-1 .2c-.2 0-.5 0-.8-.2a2 2 0 01-.7-.5l-.4-.8a3 3 0 01-.2-1zm.8 0l.1.7c0 .3.2.4.3.6 0 .2.2.3.4.4l.6.1a1.2 1.2 0 001-.5l.3-.6v-.7-.7l-.3-.5a1.2 1.2 0 00-2 0l-.3.5v.7zm8-2.4a3.3 3.3 0 01.8 0l-.1.9a4 4 0 00-.9-.1c-.4 0-.7 0-1 .2l-.4.8v3h-.9v-4.8h.8v.8l.7-.6c.3-.2.6-.2 1-.2zm4.2-1.1v1.1h1.8v.7h-1.8v3l.3.3.2.2h.4a2.9 2.9 0 00.5 0 6 6 0 00.5-.1v.5l-.2.1a3 3 0 01-.6.2 4 4 0 01-.4 0 2 2 0 01-.6-.1c-.2 0-.4-.2-.5-.3l-.3-.5-.1-.7v-2.6h-1.3v-.7h1.3v-1.1h.8zm5-.4l-.2 1.7h-.5v-2.2h.6v.5zm1.5 0l-.1 1.7h-.6v-2.2h.7v.5z"/>
      <path id="Line4" d="M352.8 389l-.2.2h.2l2.7 1v1l-3.8-1.7v-.7l3.8-1.6v.8l-2.7 1zm4.7-1.8v.5l.4-.4.6-.1c.5 0 .7.1.9.5 0-.2.2-.3.4-.4l.5-.1c.4 0 .6 0 .8.3.2.2.3.5.3 1v3.5h-.8v-3.6c0-.4-.2-.6-.5-.6h-.3a.5.5 0 00-.3.4V392h-.8v-3.6l-.1-.4-.4-.2-.4.1-.2.3v3.8h-.8v-4.8h.7zm7.2 4.9c-.4 0-.7 0-1-.2a2.1 2.1 0 01-1.1-1.2l-.2-1c0-.5 0-.8.2-1.1l.5-.8.7-.5.8-.1.9.1.6.5.4.8.1.9v.4h-3.4l.1.6.3.5a1.5 1.5 0 001.1.4 1.7 1.7 0 001.4-.6l.5.4a1.9 1.9 0 01-.8.6l-.5.2h-.6zm-.1-4.3a1.2 1.2 0 00-.9.4l-.3.4-.2.6h2.6v-.5l-.3-.5a1.1 1.1 0 00-1-.4zm5.3-1.7v1.1h1.8v.7H370v3l.3.3.3.2h.3a2.8 2.8 0 00.5 0 6 6 0 00.5-.1l.1.5-.3.1a3 3 0 01-.6.2 4 4 0 01-.4 0 2 2 0 01-.6-.1 1.3 1.3 0 01-.8-.8l-.1-.7v-2.6h-1.3v-.7h1.3v-1.1h.8zm6.6 5.9v-.2l-.1-.3a2.2 2.2 0 01-1 .5 2 2 0 01-1.1 0l-.6-.3-.3-.5v-.5-.7l.5-.5.7-.3h1.8v-.5l-.1-.3c0-.2-.1-.3-.2-.3a1 1 0 00-.4-.2 1.5 1.5 0 00-.9 0 1 1 0 00-.3.1l-.2.3v.3h-.9l.1-.5.4-.5.6-.3.8-.1h.7c.3.1.5.2.6.4.2 0 .3.3.4.5l.2.7v2.2a3.2 3.2 0 00.2 1h-.9zm-1.4-.6a1.6 1.6 0 001-.5c.2 0 .2-.2.3-.2v-1h-.8c-.5 0-.8 0-1 .2-.3.1-.5.4-.5.7v.3a.7.7 0 00.6.4h.4zm11.1 0h.4l.4-.2.3-.3v-.4h.9l-.2.6-.4.5a2.2 2.2 0 01-2.3.3 2 2 0 01-1.1-1.3 3 3 0 01-.1-.9v-.2l.1-.9c0-.3.2-.5.4-.7l.7-.5c.2-.2.6-.2 1-.2a2.1 2.1 0 011.3.5 1.6 1.6 0 01.6 1.2h-.8l-.1-.4a1 1 0 00-.6-.6h-1.1l-.4.5-.3.5v1.4l.3.6.4.4.6.1zm4.2-3.4l.6-.6c.3-.2.6-.2.9-.2h.7l.5.4.3.6.1.8v3h-.8v-3c0-.4 0-.7-.3-.9-.1-.2-.4-.3-.8-.3l-.7.2-.5.5v3.5h-.8v-6.8h.8v2.8zm7.7 4v-.2-.3a2.2 2.2 0 01-1 .5 2 2 0 01-1.1 0l-.6-.3-.4-.5v-.5-.7l.5-.5.7-.3h1.8v-.5-.3l-.3-.3a1 1 0 00-.4-.2h-.9a1 1 0 00-.3.1l-.2.3v.3h-.9c0-.2 0-.4.2-.5 0-.2.2-.4.3-.5l.6-.3.8-.1h.8l.6.4.4.5.1.7v2.2a3.2 3.2 0 00.2 1h-.9zm-1.4-.6a1.5 1.5 0 001.1-.5l.2-.2v-1h-.8c-.4 0-.8 0-1 .2-.3.1-.5.4-.5.7l.1.3a.7.7 0 00.5.4h.4zm6.8-4.2a3.3 3.3 0 01.9 0l-.1.9a4 4 0 00-1-.1c-.3 0-.6 0-.9.2-.2.2-.4.4-.5.8v3h-.8v-4.8h.8v.8c.2-.3.4-.5.7-.6.3-.2.6-.2 1-.2zm5.5 3.5v-.2l-.3-.2-.3-.2-.6-.2c-.3 0-.5 0-.7-.2l-.6-.2-.4-.4a1.1 1.1 0 010-1c.1-.3.2-.4.4-.5l.6-.3.7-.1h.8l.6.4a1.4 1.4 0 01.5 1h-.8v-.3l-.3-.2-.3-.2h-.9a1 1 0 00-.3.1l-.2.3-.1.2v.3l.2.2.4.1.5.2.8.2.6.3c.2 0 .3.2.4.4v1.1l-.4.4a2 2 0 01-.7.3 2.9 2.9 0 01-1.6 0c-.3-.1-.5-.2-.6-.4l-.4-.5-.2-.6h.8a.8.8 0 00.5.7l.3.2h.5c.3 0 .6 0 .8-.2.2 0 .3-.3.3-.5zm4.3 1.4c-.3 0-.6 0-.9-.2a2.1 2.1 0 01-1.2-1.2l-.1-1 .1-1.1.5-.8.7-.5.8-.1 1 .1.6.5c.1.2.3.5.3.8l.2.9v.4h-3.4v.6l.4.5a1.5 1.5 0 001 .4 1.7 1.7 0 001.4-.6l.5.4a1.9 1.9 0 01-.7.6l-.5.2h-.7zm0-4.3a1.2 1.2 0 00-1 .4l-.2.4-.2.6h2.5v-.5c0-.2-.2-.3-.3-.5a1.1 1.1 0 00-.9-.4zm5.3-1.7v1.1h1.8v.7h-1.8v3l.2.3.3.2h.3a2.9 2.9 0 00.6 0 6 6 0 00.4-.1l.1.5-.2.1a3 3 0 01-.7.2 4 4 0 01-.4 0 2 2 0 01-.6-.1l-.4-.3c-.2-.1-.3-.3-.3-.5l-.2-.7v-2.6h-1.2v-.7h1.2v-1.1h.9zm7.4 2.5h-4v-.7h4v.7zm0 1.8h-4v-.7h4v.7zm2.9-4.7l-.1 1.7h-.6v-2.2h.7v.5zm1.6 0l-.1 1.7h-.6v-2.2h.7v.5zm6.4-.1v4.3c0 .3 0 .6-.2.9l-.4.7a2 2 0 01-2.4.4 2 2 0 01-1-1.1c-.2-.3-.2-.6-.2-.9v-4.3h.8V390.5l.3.4.4.4.6.1.5-.1.4-.3.3-.5V385.6h.9zm5.7.7h-2v5.7h-.8v-5.7h-2v-.7h4.8v.7zm4.6 2.9h-2.6v2.8h-.9v-6.4h4v.7h-3.1v2.2h2.6v.7zm5.4.3h-3.3v-.6h3.3v.6zm5.8-2.2c0 .3 0 .6-.3.8-.1.3-.4.5-.6.6a2 2 0 01.7.6l.3.5v.5l-.1.7-.4.6a2 2 0 01-.7.4h-1.6a1.7 1.7 0 01-1.2-1.7 1.7 1.7 0 011-1.6 1.6 1.6 0 01-.9-1v-.4c0-.3 0-.6.2-.8a1.6 1.6 0 011-.9h1.5l.6.4.4.5.1.8zm-.7 3v-.5a1 1 0 00-.7-.7h-1a1.1 1.1 0 00-.6.6l-.1.6v.5a1 1 0 00.7.5 1.6 1.6 0 001 0c.2 0 .3 0 .4-.2l.2-.3.1-.5zm-.1-3a1.1 1.1 0 00-.3-.8 1 1 0 00-.4-.2l-.4-.1h-.4a1 1 0 00-.6.6v.9l.2.4a1 1 0 00.8.3l.4-.1a1 1 0 00.6-.6v-.4zm3.7-1.6v1.7h-.6v-2.2h.6v.5zm1.6 0l-.1 1.7h-.6v-2.2h.7v.5zm2.4 2.3v-.8l3.9 1.6v.7l-4 1.6v-.8l3-1 .2-.2h-.3l-2.8-1.1z"/>
      <path id="Line3" d="M341.8 380l-.2.2h.2l2.7 1v1l-3.8-1.7v-.7l3.8-1.6v.8l-2.7 1zm5.2-1l.6-.6c.3-.2.5-.2.9-.2h.6l.5.4.4.6.1.8v3h-.8v-3c0-.4-.1-.7-.3-.9-.2-.2-.4-.3-.8-.3l-.7.2-.5.5v3.5h-.8v-6.8h.8v2.8zm6.7 4h-1a2.1 2.1 0 01-1.1-1.3l-.2-1c0-.5 0-.8.2-1.1l.5-.8.7-.5.8-.1.9.1.6.5.4.8.1.9v.4h-3.4l.1.6.3.5a1.5 1.5 0 001.1.4 1.7 1.7 0 001.4-.6l.5.4a1.9 1.9 0 01-.8.6l-.5.2h-.6zm-.1-4.2a1.2 1.2 0 00-.9.4l-.3.4-.2.6h2.6v-.5l-.3-.5a1.1 1.1 0 00-1-.4zm6.5 4.2v-.2l-.1-.3a2.1 2.1 0 01-1 .5 2 2 0 01-1.1 0l-.6-.3-.3-.5-.1-.5c0-.3 0-.5.2-.7 0-.2.2-.4.4-.5l.7-.3h1.8v-.5l-.1-.3c0-.2-.1-.3-.2-.3a1 1 0 00-.4-.2 1.5 1.5 0 00-.9 0 1 1 0 00-.3.1l-.2.3v.3h-.9l.1-.5.4-.5.6-.3.8-.1h.7c.3.1.5.2.6.4.2 0 .3.3.4.5l.2.7v2.2a3.2 3.2 0 00.2 1h-.9zm-1.4-.6a1.6 1.6 0 001-.5c.2 0 .2-.2.3-.2v-1h-.8c-.5 0-.8 0-1 .2-.4.1-.5.4-.5.7v.3a.7.7 0 00.6.4h.4zm3.5-1.8c0-.4 0-.7.2-1 0-.3.2-.5.3-.8l.6-.5.8-.1.8.1.5.4v-2.4h.8v6.7h-.7v-.5l-.6.4-.8.2a1.7 1.7 0 01-1.4-.7l-.3-.8-.2-1zm.8 0l.1.7.2.6.4.4.6.1h.4a1.2 1.2 0 00.5-.4l.2-.3v-2.2c0-.2-.2-.3-.4-.5l-.7-.2c-.2 0-.4 0-.6.2l-.4.4-.2.5v.7zm4.8-1.6v-.8l3.9 1.6v.7l-3.9 1.6v-.8l2.9-1 .2-.2h-.2l-2.9-1.1z"/>
      <path id="Line2" d="M341.8 371l-.2.2h.2l2.7 1v1l-3.8-1.7v-.7l3.8-1.6v.8l-2.7 1zm5.2-1l.6-.6c.3-.2.5-.2.9-.2h.6l.5.4.4.6.1.8v3h-.8v-3c0-.4-.1-.7-.3-.9-.2-.2-.4-.3-.8-.3l-.7.2-.5.5v3.5h-.8v-6.8h.8v2.8zm6.5-2v1.2h1.8v.7h-1.8v3l.3.3.2.2h.4a2.8 2.8 0 00.5 0 6.3 6.3 0 00.5-.1v.5l-.2.1a3 3 0 01-.6.2 4 4 0 01-.4 0 2 2 0 01-.6-.1 1.3 1.3 0 01-.8-.8l-.1-.7v-2.6h-1.3v-.7h1.3v-1.1h.8zm3.9 1.2v.5c0-.2.2-.3.4-.4l.5-.1c.5 0 .8.1.9.5 0-.2.2-.3.4-.4l.5-.1c.4 0 .6 0 .8.3.2.2.3.5.3 1v3.5h-.8v-3.6c0-.4-.1-.6-.5-.6h-.3l-.1.2-.1.2V374h-.9v-3.6l-.1-.4-.4-.2-.4.1-.2.3v3.8h-.8v-4.8h.8zm5.1-2h2.4v6.1h1.6v.7h-4v-.7h1.6V368h-1.6v-.8zm10.8 0h2.5v6.1h1.5v.7h-4v-.7h1.6V368h-1.6v-.8zm8.4 6.8v-.2-.3a2.2 2.2 0 01-1 .5 2 2 0 01-1.1 0l-.6-.3-.4-.5v-.5-.7l.5-.5.7-.3h1.8v-.5-.3l-.3-.3a1 1 0 00-.4-.2 1.5 1.5 0 00-.9 0 1 1 0 00-.3.1l-.2.3v.3h-.9c0-.2 0-.4.2-.5 0-.2.2-.4.3-.5l.6-.3.8-.1h.8l.6.4.4.5.1.7v2.2a3.2 3.2 0 00.2 1h-.9zm-1.4-.6a1.6 1.6 0 001.1-.5l.2-.2v-1h-.8c-.4 0-.8 0-1 .2-.3.1-.5.4-.5.7v.3a.7.7 0 00.6.4h.4zm4.4-4.2v.7l.7-.5c.3-.2.6-.2.9-.2h.7l.5.4.3.6.1.8v3h-.8v-3-.5l-.3-.4-.3-.2h-.5c-.2 0-.5 0-.7.2-.2 0-.4.3-.5.5v3.4h-.8v-4.8h.7zm4.6 2.4v-1l.5-.8.6-.5.8-.1.7.1c.3.1.4.3.6.5v-.6h.8v4.7c0 .3 0 .6-.2.8a1.7 1.7 0 01-1 1 2.4 2.4 0 01-1.7 0c-.2 0-.4-.2-.5-.3-.2 0-.3-.2-.4-.3l.4-.5a2 2 0 00.7.5h.3l.3.1h.5a1 1 0 00.7-.7v-1a1.6 1.6 0 01-1.2.6 1.7 1.7 0 01-1.4-.7l-.4-.8-.1-1zm.8 0v.7l.3.6.4.4.6.1h.3a1.1 1.1 0 00.6-.4l.2-.3v-2.2l-.2-.2-.3-.3-.3-.1H390.8l-.4.5-.3.5v.7zm8.6-1h-3.9v-.7h4v.7zm0 1.8h-3.9v-.7h4v.7zm3-4.7l-.1 1.7h-.6v-2.2h.7v.5zm1.5 0v1.7h-.6v-2.2h.6v.5zm4.5 6.4c-.3 0-.6 0-.9-.2a2.1 2.1 0 01-1.2-1.2l-.1-1 .1-1.1.5-.8.7-.5.8-.1 1 .1.6.5c.1.2.3.5.3.8l.2.9v.4h-3.4v.6l.4.5a1.5 1.5 0 001 .4 1.7 1.7 0 001.4-.6l.5.4a1.9 1.9 0 01-.7.6l-.5.2h-.7zm0-4.3a1.2 1.2 0 00-1 .4l-.2.4-.2.6h2.6l-.1-.5c0-.2-.2-.3-.3-.5a1.1 1.1 0 00-.9-.4zm4-.6l.1.7.7-.5c.2-.2.5-.2.8-.2h.7l.5.4c.1.1.3.3.3.6l.1.8v3h-.8v-3-.5l-.2-.4-.4-.2h-.4c-.3 0-.6 0-.8.2-.2 0-.3.3-.5.5v3.4h-.8v-4.8h.8zm6.2-1.5l-.1 1.7h-.6v-2.2h.7v.5zm1.6 0l-.1 1.7h-.6v-2.2h.7v.5zm2.4 2.3v-.8l3.8 1.6v.7L422 373v-.8l2.8-1 .3-.2h-.3l-2.8-1.1z"/>
      <path id="Line1" d="M341.8 362l-.2.2h.2l2.7 1v1l-3.8-1.7v-.7l3.8-1.6v.8l-2.7 1zm6.6 1h-.8v-4.4h.8v4.3zm-.9 1.6c0-.2 0-.3.2-.4l.3-.1.4.1.2.4c0 .1 0 .2-.2.3l-.4.1h-.3l-.2-.4zm4 .4v-6.4h1.5c.4 0 .8 0 1.2.2a2.4 2.4 0 011.4 1.6l.2 1.2v.4c0 .5 0 .9-.2 1.2l-.5 1-1 .6-1.1.2h-1.5zm.8-5.7v5h.7l.9-.1.6-.5.4-.8v-1.3-1a2 2 0 00-.4-.7l-.6-.4c-.3-.2-.6-.2-1-.2h-.6zm8.8 2.9a4.7 4.7 0 01-.2 1.3c0 .3-.2.5-.3.6l-.4.5a2 2 0 01-1.3.5 2 2 0 01-1.3-.5l-.4-.5a3.2 3.2 0 01-.5-1.2v-1.5a5 5 0 01.2-1.3l.3-.6.4-.5.6-.4h.7a2 2 0 011.3.4l.4.5.3.6.2.6v1.5zm-.8-.8a5.3 5.3 0 000-1l-.3-.4-.2-.4a1.1 1.1 0 00-.9-.4 1.1 1.1 0 00-.9.4l-.2.4a2.7 2.7 0 00-.3 1V362.2a5.9 5.9 0 00.1 1l.2.4.2.4.4.3h.5a1.2 1.2 0 00.9-.3l.3-.4.1-.5.1-.5V361.4zm6.2 1.7c0 .3 0 .5-.2.8l-.4.6a2 2 0 01-.7.4l-.8.2-.8-.1a2 2 0 01-1-.8 3 3 0 01-.4-1.2l-.1-.8v-.8a4.7 4.7 0 01.2-1.4l.3-.6.5-.5.5-.3h1.6l.7.5.4.6.2.9h-.8l-.1-.6-.3-.4-.4-.3-.5-.1a1.3 1.3 0 00-1 .3l-.2.4-.2.5a3.5 3.5 0 000 1v.8a4.7 4.7 0 000 1l.2.5.3.4.4.2.5.1h.5l.4-.4.3-.4.1-.5h.8zm5.6-3.8h-2v5.7h-.8v-5.7h-2v-.7h4.8v.7zm3 2.5l1.4-3.2h1l-2 4v2.4h-.8v-2.4l-2-4h1l1.4 3.2zm4.4.6v2.6h-.8v-6.4h2l.9.1.6.4.5.6.2.8c0 .3 0 .6-.2.8-.1.3-.3.5-.5.6a2 2 0 01-.6.4l-.9.1h-1.2zm0-.6h1.3l.5-.1.4-.3.3-.4v-.5-.5a1.1 1.1 0 00-.7-.6l-.6-.1h-1.2v2.5zm8 .2H385v2.3h3v.7H384v-6.4h4v.7h-3.1v2h2.6v.7zm8.1-1c.2-.3.4-.5.7-.6.2-.2.5-.2.8-.2h.7l.5.4c.1.2.3.3.3.6l.1.8v3h-.8v-3c0-.4 0-.7-.2-.9-.2-.2-.5-.3-.8-.3l-.8.2-.5.5v3.5h-.8v-6.8h.8v2.8zm6.5-2v1.2h1.9v.7H402v2.6l.1.4.2.3.3.2h.3a2.9 2.9 0 00.6 0 6.4 6.4 0 00.4-.1l.1.5-.2.1a3 3 0 01-.7.2 4 4 0 01-.4 0 2 2 0 01-.6-.1 1.3 1.3 0 01-.8-.8V361H400v-.7h1.2v-1.1h.8zm3.9 1.2v.5l.4-.4.6-.1c.4 0 .7.1.8.5l.4-.4.6-.1c.3 0 .6 0 .8.3.2.2.3.5.3 1v3.5h-.8v-3.6c0-.4-.2-.6-.6-.6h-.2a.5.5 0 00-.3.4V365h-.8v-3.6l-.1-.4-.5-.2-.3.1-.3.3v3.8h-.7v-4.8h.7zm5.2-2h2.4v6.1h1.5v.7h-4v-.7h1.7V359h-1.6v-.8zm5.3 2.8v-.8l3.8 1.6v.7l-3.8 1.6v-.8l2.8-1 .3-.2h-.3l-2.8-1.1z"/>
    </g>
  </g>
  <defs>
    <clipPath id="clip0">
      <path fill="#fff" d="M0 0h1041.3v554.2H0z"/>
    </clipPath>
  </defs>
</svg>
